<svg xmlns="http://www.w3.org/2000/svg" version="1.1" viewBox="0 0 15 15"><rect width="5" height="5" x="5" y="5" fill="#FFF" stroke="#fff" stroke-width="0" mask="url(#clip)"/><polygon fill="#175fff" stroke-width="0" points="5 5 10 5 10 10 5 10 5 5" mask="(#clip)"/><rect width="5" height="5" x="5" y="0" fill="#175fff" stroke="#fff" stroke-width="0" mask="url(#clip)"/><polygon fill="#FFF" stroke-width="0" points="6.25 1.25 8.75 1.25 8.75 3.75 6.25 3.75 6.25 1.25" mask="(#clip)"/><rect width="5" height="5" x="10" y="5" fill="#175fff" stroke="#fff" stroke-width="0" mask="url(#clip)"/><polygon fill="#FFF" stroke-width="0" points="13.75 6.25 13.75 8.75 11.25 8.75 11.25 6.25 13.75 6.25" mask="(#clip)"/><rect width="5" height="5" x="5" y="10" fill="#175fff" stroke="#fff" stroke-width="0" mask="url(#clip)"/><polygon fill="#FFF" stroke-width="0" points="8.75 13.75 6.25 13.75 6.25 11.25 8.75 11.25 8.75 13.75" mask="(#clip)"/><rect width="5" height="5" x="0" y="5" fill="#175fff" stroke="#fff" stroke-width="0" mask="url(#clip)"/><polygon fill="#FFF" stroke-width="0" points="1.25 8.75 1.25 6.25 3.75 6.25 3.75 8.75 1.25 8.75" mask="(#clip)"/><rect width="5" height="5" x="0" y="0" fill="#175fff" stroke="#fff" stroke-width="0" mask="url(#clip)"/><polygon fill="#FFF" stroke-width="0" points="5 0 5 5 0 0 5 0" mask="(#clip)"/><rect width="5" height="5" x="10" y="0" fill="#175fff" stroke="#fff" stroke-width="0" mask="url(#clip)"/><polygon fill="#FFF" stroke-width="0" points="15 5 10 5 15 0 15 5" mask="(#clip)"/><rect width="5" height="5" x="10" y="10" fill="#175fff" stroke="#fff" stroke-width="0" mask="url(#clip)"/><polygon fill="#FFF" stroke-width="0" points="10 15 10 10 15 15 10 15" mask="(#clip)"/><rect width="5" height="5" x="0" y="10" fill="#175fff" stroke="#fff" stroke-width="0" mask="url(#clip)"/><polygon fill="#FFF" stroke-width="0" points="0 10 5 10 0 15 0 10" mask="(#clip)"/></svg>